<svg id="Capa_1" enable-background="new 0 0 512.229 512.229" height="512" viewBox="0 0 512.229 512.229" width="512" xmlns="http://www.w3.org/2000/svg"><g><g><path d="m299.119 379.105-12.536-17.877h-63.755l-9.718 17.877v46.068h86.118z" fill="#cac5cb"/><path d="m246.076 418.441v-57.213h-23.248l-9.718 17.877v46.068h86.118l-.016-6.732z" fill="#b3adb5"/><g id="XMLID_163_"><g><g><path d="m504.724 236.774v38.68c0 11.84-9.59 21.43-21.43 21.43h-12.77c-2.49 0-4.64 1.73-5.16 4.15-5.51 25.78-15.65 49.85-29.52 71.27-1.35 2.08-1.05 4.83.7 6.59l9.04 9.03c8.37 8.37 8.37 21.94 0 30.31l-27.35 27.35c-8.37 8.37-21.94 8.37-30.31 0l-9.03-9.04c-1.76-1.75-4.51-2.05-6.59-.7-21.42 13.87-45.49 24.01-71.27 29.52-2.42.52-4.15 2.67-4.15 5.16v12.77c0 11.84-9.59 21.43-21.43 21.43h-38.68c-11.84 0-21.43-9.59-21.43-21.43v-12.77c0-2.49-1.73-4.64-4.15-5.16-25.78-5.51-49.85-15.65-71.27-29.52-2.08-1.35-4.83-1.05-6.59.7l-9.03 9.04c-8.37 8.37-21.94 8.37-30.31 0l-27.35-27.35c-8.37-8.37-8.37-21.94 0-30.31l9.04-9.03c1.75-1.76 2.05-4.51.7-6.59-13.87-21.42-24.01-45.49-29.52-71.27-.52-2.42-2.67-4.15-5.16-4.15h-12.77c-11.84 0-21.43-9.59-21.43-21.43v-38.68c0-11.84 9.59-21.43 21.43-21.43h12.77c2.49 0 4.64-1.73 5.16-4.15 5.51-25.78 15.65-49.85 29.52-71.27 1.35-2.08 1.05-4.83-.7-6.59l-9.04-9.03c-8.37-8.37-8.37-21.94 0-30.31l27.35-27.35c8.37-8.37 21.94-8.37 30.31 0l9.03 9.04c1.76 1.75 4.51 2.05 6.59.7 21.42-13.87 45.49-24.01 71.27-29.52 2.42-.52 4.15-2.67 4.15-5.16v-12.77c0-11.84 9.59-21.43 21.43-21.43h38.68c11.84 0 21.43 9.59 21.43 21.43v12.77c0 2.49 1.73 4.64 4.15 5.16 25.78 5.51 49.85 15.65 71.27 29.52 2.08 1.35 4.83 1.05 6.59-.7l9.03-9.04c8.37-8.37 21.94-8.37 30.31 0l27.35 27.35c8.37 8.37 8.37 21.94 0 30.31l-9.04 9.03c-1.75 1.76-2.05 4.51-.7 6.59 13.87 21.42 24.01 45.49 29.52 71.27.52 2.42 2.67 4.15 5.16 4.15h12.77c11.84 0 21.43 9.59 21.43 21.43zm-102.08 19.34c0-80.93-65.6-146.53-146.53-146.53s-146.53 65.6-146.53 146.53 65.6 146.53 146.53 146.53 146.53-65.6 146.53-146.53z" fill="#f8f7f8"/></g></g></g><path d="m352.375 153.562-32.297-51.297c-.684-1.086-1.877-1.745-3.16-1.745h-17.769c-2.063 0-3.735 1.672-3.735 3.735v75.205c0 2.065-.98 4.007-2.642 5.234l-32.794 24.213c-2.297 1.696-5.432 1.696-7.729 0l-32.794-24.213c-1.661-1.227-2.642-3.169-2.642-5.234v-75.205c0-2.063-1.672-3.735-3.735-3.735h-17.768c-1.283 0-2.477.659-3.16 1.745l-32.297 51.297c-1.061 1.685-1.623 3.635-1.623 5.625v65.825c0 2.964 1.246 5.792 3.434 7.792l50.215 45.911c.785.717 1.232 1.732 1.232 2.795v97.597h86.009v-97.597c0-1.063.447-2.077 1.232-2.795l50.215-45.911c2.188-2 3.434-4.828 3.434-7.792v-65.825c-.002-1.991-.565-3.941-1.626-5.625z" fill="#cac5cb"/><g><path d="m246.076 379.105v-104.329c0-1.063-.447-2.077-1.232-2.795l-50.215-45.911c-2.188-2-3.434-4.828-3.434-7.792v-65.825c0-1.991.563-3.941 1.623-5.625l23.995-38.111v-4.464c0-2.063-1.672-3.735-3.735-3.735h-17.768c-1.283 0-2.477.659-3.16 1.745l-32.297 51.297c-1.061 1.685-1.623 3.635-1.623 5.625v65.825c0 2.964 1.246 5.792 3.434 7.792l50.215 45.911c.785.717 1.232 1.732 1.232 2.795v97.597z" fill="#b3adb5"/></g><g><g><path d="m83.556 256.114c0-86.687 45.399-162.76 113.709-205.774-20.542 5.861-39.828 14.704-57.341 26.044-2.08 1.35-4.83 1.05-6.59-.7l-9.03-9.04c-8.37-8.37-21.94-8.37-30.31 0l-27.35 27.35c-8.37 8.37-8.37 21.94 0 30.31l9.04 9.03c1.75 1.76 2.05 4.51.7 6.59-13.87 21.42-24.01 45.49-29.52 71.27-.52 2.42-2.67 4.15-5.16 4.15h-12.77c-11.84 0-21.43 9.59-21.43 21.43v38.68c0 11.84 9.59 21.43 21.43 21.43h12.77c2.49 0 4.64 1.73 5.16 4.15 5.51 25.78 15.65 49.85 29.52 71.27 1.35 2.08 1.05 4.83-.7 6.59l-9.04 9.03c-8.37 8.37-8.37 21.94 0 30.31l27.35 27.35c8.37 8.37 21.94 8.37 30.31 0l9.03-9.04c1.76-1.75 4.51-2.05 6.59-.7 17.513 11.34 36.799 20.183 57.341 26.044-68.309-43.014-113.709-119.086-113.709-205.774z" fill="#efedee"/></g></g></g><g><path d="m483.299 207.843h-10.991c-1.464-6.573-3.268-13.203-5.372-19.735-1.27-3.942-5.496-6.111-9.438-4.84-3.943 1.27-6.11 5.496-4.84 9.438 2.14 6.644 3.946 13.39 5.369 20.051 1.249 5.844 6.503 10.086 12.494 10.086h12.778c7.681 0 13.93 6.249 13.93 13.93v38.682c0 7.681-6.249 13.93-13.93 13.93h-12.778c-5.991 0-11.245 4.242-12.494 10.086-5.241 24.536-14.824 47.668-28.482 68.754-3.25 5.017-2.536 11.732 1.7 15.968l9.038 9.039c2.631 2.631 4.08 6.129 4.08 9.85s-1.449 7.219-4.08 9.85l-27.352 27.352c-2.631 2.631-6.129 4.08-9.85 4.08s-7.219-1.449-9.85-4.08l-9.039-9.039c-4.236-4.234-10.952-4.949-15.967-1.7-21.086 13.658-44.219 23.241-68.755 28.482-5.844 1.248-10.086 6.502-10.086 12.494v12.777c0 7.681-6.249 13.93-13.93 13.93h-38.682c-7.681 0-13.93-6.249-13.93-13.93v-12.778c0-5.991-4.242-11.246-10.086-12.494-24.537-5.242-47.669-14.825-68.754-28.482-5.017-3.25-11.732-2.536-15.968 1.7l-9.038 9.038c-2.631 2.631-6.129 4.08-9.85 4.08s-7.219-1.449-9.85-4.08l-27.352-27.352c-2.631-2.631-4.08-6.129-4.08-9.85s1.449-7.219 4.08-9.85l9.038-9.039c4.236-4.235 4.951-10.951 1.701-15.967-13.659-21.087-23.241-44.22-28.482-68.755-1.249-5.844-6.502-10.086-12.494-10.086h-12.777c-7.681 0-13.93-6.249-13.93-13.93v-38.682c0-7.681 6.249-13.93 13.93-13.93h12.778c5.991 0 11.245-4.242 12.494-10.086 5.241-24.537 14.824-47.669 28.482-68.754 3.25-5.016 2.536-11.731-1.7-15.968l-9.038-9.038c-2.631-2.631-4.08-6.129-4.08-9.85s1.449-7.219 4.08-9.85l27.352-27.352c2.631-2.631 6.129-4.08 9.85-4.08s7.219 1.449 9.85 4.08l9.039 9.039c4.237 4.235 10.953 4.95 15.967 1.7 21.087-13.659 44.22-23.241 68.755-28.482 5.844-1.249 10.086-6.503 10.086-12.494v-12.776c0-7.681 6.249-13.93 13.93-13.93h38.682c7.681 0 13.93 6.249 13.93 13.93v12.778c0 5.991 4.242 11.245 10.086 12.494 24.536 5.241 47.668 14.824 68.754 28.482 5.016 3.25 11.731 2.535 15.968-1.7l9.038-9.038c2.631-2.631 6.129-4.08 9.85-4.08s7.219 1.449 9.85 4.08l27.352 27.352c2.631 2.631 4.08 6.129 4.08 9.85s-1.449 7.219-4.08 9.85l-9.039 9.039c-4.235 4.236-4.949 10.952-1.7 15.967 4.131 6.378 7.953 13.068 11.361 19.886 1.852 3.705 6.356 5.208 10.062 3.355 3.705-1.852 5.207-6.357 3.355-10.062-3.384-6.77-7.149-13.423-11.207-19.804l7.774-7.774c5.464-5.464 8.474-12.729 8.474-20.456 0-7.728-3.009-14.993-8.474-20.457l-27.352-27.352c-5.464-5.464-12.729-8.474-20.457-8.474-7.727 0-14.992 3.009-20.456 8.474l-7.774 7.773c-21.7-13.807-45.389-23.621-70.466-29.192v-10.991c0-15.952-12.978-28.93-28.93-28.93h-38.682c-15.952 0-28.93 12.978-28.93 28.93v10.99c-25.076 5.571-48.766 15.386-70.466 29.192l-7.774-7.773c-5.464-5.464-12.729-8.474-20.456-8.474-7.728 0-14.993 3.009-20.457 8.474l-27.353 27.351c-5.464 5.464-8.474 12.729-8.474 20.457 0 7.727 3.009 14.992 8.474 20.456l7.773 7.774c-13.807 21.699-23.62 45.388-29.192 70.466h-10.989c-15.952 0-28.93 12.978-28.93 28.93v38.682c0 15.952 12.978 28.93 28.93 28.93h10.99c5.571 25.076 15.385 48.767 29.192 70.467l-7.773 7.774c-5.464 5.464-8.474 12.729-8.474 20.456s3.009 14.992 8.474 20.457l27.351 27.351c5.464 5.464 12.729 8.474 20.457 8.474 7.727 0 14.992-3.009 20.456-8.474l7.774-7.773c21.699 13.807 45.388 23.62 70.466 29.192v10.99c0 15.952 12.978 28.93 28.93 28.93h38.682c15.952 0 28.93-12.978 28.93-28.93v-10.99c25.077-5.572 48.767-15.386 70.466-29.192l7.774 7.773c5.464 5.464 12.729 8.474 20.456 8.474 7.728 0 14.993-3.009 20.457-8.474l27.352-27.352c5.464-5.464 8.474-12.729 8.474-20.457s-3.009-14.992-8.474-20.456l-7.773-7.774c13.808-21.701 23.621-45.39 29.192-70.467h10.99c15.952 0 28.93-12.978 28.93-28.93v-38.682c0-15.951-12.979-28.929-28.93-28.929z"/><path d="m213.11 338.448c-4.142 0-7.5 3.358-7.5 7.5v39.679c-13.614-5.304-26.401-12.74-37.794-22.121-24.455-20.132-41.441-48.196-47.831-79.021-.841-4.056-4.808-6.662-8.866-5.821-4.056.841-6.662 4.81-5.821 8.866 7.082 34.163 25.899 65.257 52.984 87.556 27.459 22.606 62.204 35.057 97.833 35.057 84.932 0 154.03-69.098 154.03-154.03 0-24.671-5.978-49.206-17.287-70.953-10.71-20.596-26.216-38.77-44.884-52.668l-21.548-34.225c-2.069-3.287-5.624-5.25-9.508-5.25h-17.769c-6.195 0-11.235 5.04-11.235 11.235v1.136c-10.424-2.19-21.08-3.306-31.8-3.306s-21.377 1.116-31.8 3.306v-1.136c0-6.195-5.04-11.235-11.235-11.235h-17.769c-3.884 0-7.438 1.962-9.507 5.249l-21.548 34.225c-18.397 13.697-33.744 31.576-44.426 51.814-11.43 21.654-17.39 45.12-17.714 69.745-.054 4.142 3.259 7.543 7.401 7.598h.101c4.096 0 7.443-3.293 7.498-7.401.292-22.229 5.669-43.406 15.98-62.94 4.868-9.222 10.811-17.902 17.636-25.831v59.533c0 5.057 2.14 9.914 5.873 13.327l49.007 44.807v30.84c0 4.142 3.358 7.5 7.5 7.5s7.5-3.358 7.5-7.5v-32.477c0-3.161-1.338-6.197-3.671-8.33l-50.214-45.91c-.632-.578-.995-1.401-.995-2.257v-65.825c0-.578.163-1.141.47-1.629l31.189-49.538h11.925v71.44c0 4.426 2.126 8.638 5.687 11.268l32.794 24.213c4.976 3.675 11.663 3.674 16.639 0l32.794-24.213c3.561-2.629 5.687-6.842 5.687-11.268v-71.44h11.925l31.189 49.538c.308.489.47 1.052.47 1.629v65.825c0 .856-.363 1.679-.994 2.257l-50.214 45.91c-2.333 2.133-3.671 5.169-3.671 8.33v109.034c-11.338 2.997-23.237 4.602-35.504 4.602-12.049 0-23.984-1.577-35.504-4.623v-44.573c-.003-4.14-3.361-7.498-7.503-7.498zm43.004-136.011-31.8-23.479v-58.2c10.387-2.431 21.057-3.674 31.8-3.674s21.413 1.243 31.8 3.674v58.2zm50.505 80.708 49.008-44.807c3.732-3.413 5.872-8.27 5.872-13.327v-59.5c21.426 24.995 33.646 57.156 33.646 90.603 0 58.854-36.761 109.279-88.525 129.532v-102.501z"/></g></g></svg>